<svg width="36" height="36" viewBox="0 0 36 36" fill="none" xmlns="http://www.w3.org/2000/svg">
<mask id="mask0_44_7" style="mask-type:alpha" maskUnits="userSpaceOnUse" x="0" y="0" width="36" height="36">
<rect width="36" height="36" fill="#D9D9D9"/>
</mask>
<g mask="url(#mask0_44_7)">
<path d="M18 30C14.65 30 11.8125 28.8375 9.4875 26.5125C7.1625 24.1875 6 21.35 6 18C6 14.65 7.1625 11.8125 9.4875 9.4875C11.8125 7.1625 14.65 6 18 6C19.725 6 21.375 6.35625 22.95 7.06875C24.525 7.78125 25.875 8.8 27 10.125V6H30V16.5H19.5V13.5H25.8C25 12.1 23.9062 11 22.5187 10.2C21.1312 9.4 19.625 9 18 9C15.5 9 13.375 9.875 11.625 11.625C9.875 13.375 9 15.5 9 18C9 20.5 9.875 22.625 11.625 24.375C13.375 26.125 15.5 27 18 27C19.925 27 21.6625 26.45 23.2125 25.35C24.7625 24.25 25.85 22.8 26.475 21H29.625C28.925 23.65 27.5 25.8125 25.35 27.4875C23.2 29.1625 20.75 30 18 30Z" fill="white"/>
</g>
</svg>
