<svg width="239" height="48" viewBox="0 0 239 48" fill="none" xmlns="http://www.w3.org/2000/svg">
<rect x="16.0494" y="34" width="16.0494" height="30.6667" rx="8.02469" transform="rotate(180 16.0494 34)" fill="#C828A3"/>
<ellipse cx="25.3334" cy="26.6667" rx="7.33333" ry="7.33333" transform="rotate(180 25.3334 26.6667)" fill="#123BA1"/>
<rect width="14" height="14" transform="matrix(-1 0 0 1 35 0)" fill="#FF6C07"/>
<path d="M45.936 17.125C42.498 17.125 40.779 19.465 40.779 24.145C40.779 28.825 42.498 31.165 45.936 31.165C49.356 31.165 51.066 28.825 51.066 24.145C51.066 19.465 49.356 17.125 45.936 17.125ZM45.936 34.27C43.164 34.27 40.968 33.379 39.348 31.597C37.728 29.815 36.918 27.331 36.918 24.145C36.918 20.959 37.728 18.475 39.348 16.693C40.968 14.911 43.164 14.02 45.936 14.02C48.708 14.02 50.895 14.911 52.497 16.693C54.117 18.475 54.927 20.959 54.927 24.145C54.927 28.069 53.604 30.922 50.958 32.704C50.94 32.704 50.931 32.713 50.931 32.731C50.931 32.767 50.94 32.785 50.958 32.785C52.974 33.577 54.702 34.9 56.142 36.754C56.34 37.024 56.358 37.303 56.196 37.591C56.052 37.897 55.809 38.05 55.467 38.05H54.306C53.334 38.05 52.542 37.618 51.93 36.754C51.21 35.746 50.445 35.08 49.635 34.756C48.825 34.432 47.592 34.27 45.936 34.27ZM62.2767 34.27C60.6927 34.27 59.5407 33.838 58.8207 32.974C58.1007 32.092 57.7407 30.607 57.7407 28.519V21.499C57.7407 21.085 57.8937 20.725 58.1997 20.419C58.5057 20.113 58.8657 19.96 59.2797 19.96H59.7117C60.1257 19.96 60.4857 20.113 60.7917 20.419C61.0977 20.725 61.2507 21.085 61.2507 21.499V28.141C61.2507 29.401 61.4217 30.274 61.7637 30.76C62.1057 31.246 62.6817 31.489 63.4917 31.489C64.2297 31.489 64.9137 31.174 65.5437 30.544C66.1917 29.914 66.5157 29.239 66.5157 28.519V21.499C66.5157 21.085 66.6687 20.725 66.9747 20.419C67.2807 20.113 67.6407 19.96 68.0547 19.96H68.5947C69.0087 19.96 69.3597 20.113 69.6477 20.419C69.9537 20.725 70.1067 21.085 70.1067 21.499V32.461C70.1067 32.875 69.9537 33.235 69.6477 33.541C69.3597 33.847 69.0087 34 68.5947 34H68.2437C67.8117 34 67.4427 33.856 67.1367 33.568C66.8487 33.262 66.6957 32.893 66.6777 32.461L66.6507 32.272C66.6507 32.254 66.6417 32.245 66.6237 32.245C66.6057 32.245 66.5877 32.254 66.5697 32.272C65.3457 33.604 63.9147 34.27 62.2767 34.27ZM76.1768 34C75.7628 34 75.4028 33.847 75.0968 33.541C74.7908 33.235 74.6378 32.875 74.6378 32.461V21.499C74.6378 21.085 74.7908 20.725 75.0968 20.419C75.4028 20.113 75.7628 19.96 76.1768 19.96H76.8788C77.2928 19.96 77.6528 20.113 77.9588 20.419C78.2648 20.725 78.4178 21.085 78.4178 21.499V32.461C78.4178 32.875 78.2648 33.235 77.9588 33.541C77.6528 33.847 77.2928 34 76.8788 34H76.1768ZM76.1768 16.99C75.7628 16.99 75.4028 16.837 75.0968 16.531C74.7908 16.225 74.6378 15.865 74.6378 15.451V15.289C74.6378 14.875 74.7908 14.515 75.0968 14.209C75.4028 13.903 75.7628 13.75 76.1768 13.75H76.8788C77.2928 13.75 77.6528 13.903 77.9588 14.209C78.2648 14.515 78.4178 14.875 78.4178 15.289V15.451C78.4178 15.865 78.2648 16.225 77.9588 16.531C77.6528 16.837 77.2928 16.99 76.8788 16.99H76.1768ZM88.9719 34.27C86.7399 34.27 85.0209 33.658 83.8149 32.434C82.6089 31.192 82.0059 29.374 82.0059 26.98C82.0059 24.622 82.5819 22.822 83.7339 21.58C84.9039 20.32 86.5599 19.69 88.7019 19.69C89.6559 19.69 90.5739 19.753 91.4559 19.879C91.8699 19.933 92.2119 20.122 92.4819 20.446C92.7519 20.77 92.8869 21.148 92.8869 21.58C92.8869 21.94 92.7429 22.228 92.4549 22.444C92.1849 22.66 91.8699 22.732 91.5099 22.66C90.8079 22.516 90.0249 22.444 89.1609 22.444C88.0269 22.444 87.1809 22.804 86.6229 23.524C86.0649 24.244 85.7859 25.396 85.7859 26.98C85.7859 28.6 86.0829 29.761 86.6769 30.463C87.2709 31.165 88.1889 31.516 89.4309 31.516C90.3129 31.516 91.0779 31.435 91.7259 31.273C92.0679 31.183 92.3739 31.246 92.6439 31.462C92.9319 31.678 93.0759 31.957 93.0759 32.299C93.0759 32.731 92.9409 33.109 92.6709 33.433C92.4189 33.757 92.0859 33.955 91.6719 34.027C90.7539 34.189 89.8539 34.27 88.9719 34.27ZM98.3358 34C97.9218 34 97.5618 33.847 97.2558 33.541C96.9498 33.235 96.7968 32.875 96.7968 32.461V15.289C96.7968 14.875 96.9498 14.515 97.2558 14.209C97.5618 13.903 97.9218 13.75 98.3358 13.75H98.8758C99.2898 13.75 99.6498 13.903 99.9558 14.209C100.262 14.515 100.415 14.875 100.415 15.289V25.684C100.415 25.702 100.424 25.711 100.442 25.711H100.469L104.573 21.094C105.239 20.338 106.085 19.96 107.111 19.96H108.245C108.533 19.96 108.731 20.095 108.839 20.365C108.965 20.635 108.929 20.878 108.731 21.094L103.79 26.548C103.7 26.656 103.7 26.773 103.79 26.899L108.785 32.839C108.983 33.073 109.01 33.325 108.866 33.595C108.74 33.865 108.533 34 108.245 34H107.111C106.085 34 105.248 33.604 104.6 32.812L100.469 27.817C100.469 27.799 100.46 27.79 100.442 27.79C100.424 27.79 100.415 27.799 100.415 27.817V32.461C100.415 32.875 100.262 33.235 99.9558 33.541C99.6498 33.847 99.2898 34 98.8758 34H98.3358ZM113.685 34C113.271 34 112.911 33.847 112.605 33.541C112.299 33.235 112.146 32.875 112.146 32.461V15.829C112.146 15.415 112.299 15.055 112.605 14.749C112.911 14.443 113.271 14.29 113.685 14.29H122.865C123.279 14.29 123.639 14.443 123.945 14.749C124.251 15.055 124.404 15.415 124.404 15.829C124.404 16.243 124.251 16.603 123.945 16.909C123.639 17.197 123.279 17.341 122.865 17.341H116.169C116.007 17.341 115.926 17.422 115.926 17.584V21.931C115.926 22.093 116.007 22.174 116.169 22.174H122.406C122.82 22.174 123.162 22.318 123.432 22.606C123.72 22.894 123.864 23.236 123.864 23.632C123.864 24.028 123.72 24.37 123.432 24.658C123.162 24.928 122.82 25.063 122.406 25.063H116.169C116.007 25.063 115.926 25.144 115.926 25.306V30.706C115.926 30.868 116.007 30.949 116.169 30.949H122.865C123.279 30.949 123.639 31.102 123.945 31.408C124.251 31.696 124.404 32.047 124.404 32.461C124.404 32.875 124.251 33.235 123.945 33.541C123.639 33.847 123.279 34 122.865 34H113.685ZM129.657 34C129.243 34 128.883 33.847 128.577 33.541C128.271 33.235 128.118 32.875 128.118 32.461V21.499C128.118 21.085 128.271 20.725 128.577 20.419C128.883 20.113 129.243 19.96 129.657 19.96H130.008C130.44 19.96 130.8 20.113 131.088 20.419C131.394 20.707 131.556 21.067 131.574 21.499V21.688C131.574 21.706 131.583 21.715 131.601 21.715C131.619 21.715 131.637 21.706 131.655 21.688C132.879 20.356 134.31 19.69 135.948 19.69C137.586 19.69 138.774 20.158 139.512 21.094C140.268 22.012 140.646 23.551 140.646 25.711V32.461C140.646 32.875 140.493 33.235 140.187 33.541C139.881 33.847 139.521 34 139.107 34H138.648C138.234 34 137.874 33.847 137.568 33.541C137.28 33.235 137.136 32.875 137.136 32.461V25.981C137.136 24.631 136.956 23.713 136.596 23.227C136.254 22.723 135.633 22.471 134.733 22.471C133.995 22.471 133.311 22.786 132.681 23.416C132.051 24.046 131.736 24.721 131.736 25.441V32.461C131.736 32.875 131.583 33.235 131.277 33.541C130.971 33.847 130.611 34 130.197 34H129.657ZM149.952 22.39C147.972 22.39 146.982 23.83 146.982 26.71C146.982 28.204 147.243 29.32 147.765 30.058C148.305 30.796 149.034 31.165 149.952 31.165C150.762 31.165 151.455 30.877 152.031 30.301C152.625 29.725 152.922 29.05 152.922 28.276V25.36C152.922 24.532 152.625 23.83 152.031 23.254C151.455 22.678 150.762 22.39 149.952 22.39ZM148.818 33.865C147.234 33.865 145.938 33.235 144.93 31.975C143.922 30.697 143.418 28.942 143.418 26.71C143.418 24.478 143.895 22.75 144.849 21.526C145.821 20.302 147.144 19.69 148.818 19.69C149.664 19.69 150.411 19.843 151.059 20.149C151.707 20.455 152.346 20.968 152.976 21.688C152.994 21.706 153.012 21.715 153.03 21.715C153.048 21.715 153.057 21.706 153.057 21.688V21.499C153.075 21.067 153.237 20.707 153.543 20.419C153.849 20.113 154.218 19.96 154.65 19.96H154.947C155.361 19.96 155.712 20.113 156 20.419C156.306 20.725 156.459 21.085 156.459 21.499V32.92C156.459 37.78 154.029 40.21 149.169 40.21C148.305 40.21 147.396 40.138 146.442 39.994C146.01 39.922 145.65 39.706 145.362 39.346C145.092 39.004 144.957 38.608 144.957 38.158C144.957 37.798 145.101 37.51 145.389 37.294C145.695 37.096 146.028 37.042 146.388 37.132C147.252 37.348 148.152 37.456 149.088 37.456C150.42 37.456 151.392 37.105 152.004 36.403C152.616 35.719 152.922 34.585 152.922 33.001V32.164C152.922 32.146 152.913 32.137 152.895 32.137C152.877 32.137 152.859 32.146 152.841 32.164C151.761 33.298 150.42 33.865 148.818 33.865ZM162.529 34C162.115 34 161.755 33.847 161.449 33.541C161.143 33.235 160.99 32.875 160.99 32.461V15.289C160.99 14.875 161.143 14.515 161.449 14.209C161.755 13.903 162.115 13.75 162.529 13.75H163.231C163.645 13.75 164.005 13.903 164.311 14.209C164.617 14.515 164.77 14.875 164.77 15.289V32.461C164.77 32.875 164.617 33.235 164.311 33.541C164.005 33.847 163.645 34 163.231 34H162.529ZM171.125 34C170.711 34 170.351 33.847 170.045 33.541C169.739 33.235 169.586 32.875 169.586 32.461V21.499C169.586 21.085 169.739 20.725 170.045 20.419C170.351 20.113 170.711 19.96 171.125 19.96H171.827C172.241 19.96 172.601 20.113 172.907 20.419C173.213 20.725 173.366 21.085 173.366 21.499V32.461C173.366 32.875 173.213 33.235 172.907 33.541C172.601 33.847 172.241 34 171.827 34H171.125ZM171.125 16.99C170.711 16.99 170.351 16.837 170.045 16.531C169.739 16.225 169.586 15.865 169.586 15.451V15.289C169.586 14.875 169.739 14.515 170.045 14.209C170.351 13.903 170.711 13.75 171.125 13.75H171.827C172.241 13.75 172.601 13.903 172.907 14.209C173.213 14.515 173.366 14.875 173.366 15.289V15.451C173.366 15.865 173.213 16.225 172.907 16.531C172.601 16.837 172.241 16.99 171.827 16.99H171.125ZM182.732 28.33C180.842 27.916 179.492 27.349 178.682 26.629C177.89 25.909 177.494 24.973 177.494 23.821C177.494 22.525 177.971 21.517 178.925 20.797C179.897 20.059 181.328 19.69 183.218 19.69C184.406 19.69 185.585 19.798 186.755 20.014C187.151 20.086 187.466 20.284 187.7 20.608C187.952 20.914 188.078 21.274 188.078 21.688C188.078 22.03 187.943 22.309 187.673 22.525C187.403 22.723 187.097 22.777 186.755 22.687C185.747 22.435 184.685 22.309 183.569 22.309C181.949 22.309 181.139 22.759 181.139 23.659C181.139 24.091 181.292 24.451 181.598 24.739C181.904 25.027 182.426 25.252 183.164 25.414C185.234 25.828 186.647 26.386 187.403 27.088C188.177 27.79 188.564 28.816 188.564 30.166C188.564 31.462 188.078 32.47 187.106 33.19C186.134 33.91 184.721 34.27 182.867 34.27C181.661 34.27 180.428 34.126 179.168 33.838C178.772 33.748 178.448 33.541 178.196 33.217C177.944 32.875 177.818 32.488 177.818 32.056C177.818 31.714 177.953 31.453 178.223 31.273C178.511 31.093 178.817 31.048 179.141 31.138C180.311 31.462 181.418 31.624 182.462 31.624C184.1 31.624 184.919 31.138 184.919 30.166C184.919 29.698 184.757 29.329 184.433 29.059C184.127 28.789 183.56 28.546 182.732 28.33ZM193.521 34C193.107 34 192.747 33.847 192.441 33.541C192.153 33.235 192.009 32.875 192.009 32.461V15.289C192.009 14.875 192.153 14.515 192.441 14.209C192.747 13.903 193.107 13.75 193.521 13.75H194.061C194.475 13.75 194.835 13.903 195.141 14.209C195.447 14.515 195.6 14.875 195.6 15.289V21.553C195.6 21.571 195.609 21.58 195.627 21.58C195.645 21.58 195.663 21.571 195.681 21.553C196.941 20.311 198.327 19.69 199.839 19.69C201.477 19.69 202.665 20.158 203.403 21.094C204.141 22.03 204.51 23.632 204.51 25.9V32.461C204.51 32.875 204.357 33.235 204.051 33.541C203.745 33.847 203.385 34 202.971 34H202.539C202.125 34 201.765 33.847 201.459 33.541C201.153 33.235 201 32.875 201 32.461V26.44C201 24.874 200.829 23.839 200.487 23.335C200.163 22.831 199.542 22.579 198.624 22.579C197.904 22.579 197.22 22.903 196.572 23.551C195.924 24.199 195.6 24.892 195.6 25.63V32.461C195.6 32.875 195.447 33.235 195.141 33.541C194.835 33.847 194.475 34 194.061 34H193.521Z" fill="white"/>
</svg>
